<?xml version="1.0" encoding="UTF-8"?>
<!DOCTYPE svg PUBLIC "-//W3C//DTD SVG 1.1//EN" "http://www.w3.org/Graphics/SVG/1.1/DTD/svg11.dtd">
<svg xmlns="http://www.w3.org/2000/svg" version="1.1" width="1000px" height="600px" style="shape-rendering:geometricPrecision; text-rendering:geometricPrecision; image-rendering:optimizeQuality; fill-rule:evenodd; clip-rule:evenodd" xmlns:xlink="http://www.w3.org/1999/xlink">
<g><path style="opacity:0.967" fill="#f4f4f4" d="M 476.5,328.5 C 484.215,329.429 490.715,327.096 496,321.5C 496.862,319.913 497.529,318.246 498,316.5C 498.667,287.833 498.667,259.167 498,230.5C 494.803,224.297 490.47,218.964 485,214.5C 481.4,206.165 480.233,197.499 481.5,188.5C 483.197,187.636 484.363,186.303 485,184.5C 485.879,179.713 485.545,175.047 484,170.5C 482.745,169.789 481.579,168.956 480.5,168C 469.167,167.333 457.833,167.333 446.5,168C 442.16,170.353 440.493,174.02 441.5,179C 440.859,182.921 442.026,186.087 445,188.5C 445.667,195.167 445.667,201.833 445,208.5C 441.803,214.703 437.47,220.036 432,224.5C 430.561,226.275 429.561,228.275 429,230.5C 428.184,239.079 428.351,247.579 429.5,256C 430.784,256.684 431.951,256.517 433,255.5C 433.333,247.5 433.667,239.5 434,231.5C 437.586,225.909 441.92,220.909 447,216.5C 450.941,207.945 452.441,198.945 451.5,189.5C 459.5,189.5 467.5,189.5 475.5,189.5C 476.002,197.205 476.836,204.872 478,212.5C 483,218.833 488,225.167 493,231.5C 493.983,260.586 493.65,289.586 492,318.5C 490.681,320.487 488.848,321.654 486.5,322C 470.075,322.97 453.741,322.636 437.5,321C 435.951,319.786 434.785,318.286 434,316.5C 433.667,299.167 433.333,281.833 433,264.5C 431.667,263.167 430.333,263.167 429,264.5C 428.052,283.219 428.386,301.886 430,320.5C 432.663,324.161 436.163,326.661 440.5,328C 446.157,328.499 451.824,328.666 457.5,328.5C 454.93,332.15 451.597,333.817 447.5,333.5C 441.682,331.09 436.015,328.423 430.5,325.5C 428.154,322.308 426.487,318.808 425.5,315C 426.319,291.165 426.653,267.165 426.5,243C 426.481,239.657 425.481,236.657 423.5,234C 426.051,229.729 428.218,225.229 430,220.5C 434.691,217.858 438.691,214.525 442,210.5C 443.515,203.233 443.848,195.899 443,188.5C 438.338,183.569 437.338,177.902 440,171.5C 441.961,168.865 444.461,167.031 447.5,166C 458.5,165.333 469.5,165.333 480.5,166C 488.24,170.552 490.406,177.052 487,185.5C 486,186.5 485,187.5 484,188.5C 481.011,203.245 485.345,215.245 497,224.5C 498.275,226.717 499.275,229.051 500,231.5C 500.005,249.554 500.838,267.554 502.5,285.5C 501.26,295.873 500.26,306.039 499.5,316C 500.167,316.333 500.833,316.667 501.5,317C 498.16,325.168 492.16,330.335 483.5,332.5C 480.651,331.9 478.318,330.567 476.5,328.5 Z"/></g>
<g><path style="opacity:1" fill="#2c2c2c" d="M 474.5,226.5 C 477.518,226.335 480.518,226.502 483.5,227C 484.931,227.465 486.097,228.299 487,229.5C 487.667,258.167 487.667,286.833 487,315.5C 486.25,316.126 485.416,316.626 484.5,317C 470.167,317.667 455.833,317.667 441.5,317C 441,316.5 440.5,316 440,315.5C 439.333,288.167 439.333,260.833 440,233.5C 444.708,225.7 449.875,225.534 455.5,233C 458.5,233.667 461.5,233.667 464.5,233C 468.009,230.97 471.342,228.804 474.5,226.5 Z"/></g>
<g><path style="opacity:0.999" fill="#fdfdfd" d="M 476.5,231.5 C 478.467,231.261 480.301,231.594 482,232.5C 482.5,259.165 482.667,285.831 482.5,312.5C 469.833,312.5 457.167,312.5 444.5,312.5C 444.333,286.498 444.5,260.498 445,234.5C 445.689,233.643 446.522,232.977 447.5,232.5C 451.638,237.739 456.971,239.906 463.5,239C 468.223,236.978 472.557,234.478 476.5,231.5 Z"/></g>
<g><path style="opacity:0.992" fill="#333333" d="M 567.5,316.5 C 567.5,316.833 567.5,317.167 567.5,317.5C 565.992,319.181 564.992,321.181 564.5,323.5C 564.167,324.5 563.5,325.167 562.5,325.5C 560.25,326.13 558.25,327.13 556.5,328.5C 556.167,328.5 555.833,328.5 555.5,328.5C 545.828,328.666 536.161,328.5 526.5,328C 522,326.167 518.833,323 517,318.5C 515.487,297.146 514.154,275.813 513,254.5C 532.333,253.167 551.667,253.167 571,254.5C 570.532,266.801 569.865,279.134 569,291.5C 567.604,293.527 565.938,293.86 564,292.5C 563.821,289.853 563.988,287.186 564.5,284.5C 564.351,282.68 563.684,281.18 562.5,280C 548.218,277.923 533.884,276.423 519.5,275.5C 520.614,289.144 521.447,302.811 522,316.5C 523.122,318.624 524.622,320.457 526.5,322C 536.833,322.667 547.167,322.667 557.5,322C 558.667,320.833 559.833,319.667 561,318.5C 561.307,313.118 561.974,307.785 563,302.5C 564.079,300.606 565.413,300.273 567,301.5C 567.499,306.489 567.666,311.489 567.5,316.5 Z"/></g>
<g><path style="opacity:0.965" fill="#fafafa" d="M 567.5,316.5 C 567.666,311.489 567.499,306.489 567,301.5C 565.413,300.273 564.079,300.606 563,302.5C 561.974,307.785 561.307,313.118 561,318.5C 559.833,319.667 558.667,320.833 557.5,322C 547.167,322.667 536.833,322.667 526.5,322C 524.622,320.457 523.122,318.624 522,316.5C 521.447,302.811 520.614,289.144 519.5,275.5C 533.884,276.423 548.218,277.923 562.5,280C 563.684,281.18 564.351,282.68 564.5,284.5C 563.988,287.186 563.821,289.853 564,292.5C 565.938,293.86 567.604,293.527 569,291.5C 569.865,279.134 570.532,266.801 571,254.5C 551.667,253.167 532.333,253.167 513,254.5C 514.154,275.813 515.487,297.146 517,318.5C 518.833,323 522,326.167 526.5,328C 536.161,328.5 545.828,328.666 555.5,328.5C 545.579,333.167 535.246,333.667 524.5,330C 516.234,325.896 511.567,319.229 510.5,310C 510.617,303.318 511.283,295.984 512.5,288C 511.27,277.079 510.77,265.913 511,254.5C 511.903,253.299 513.069,252.465 514.5,252C 519.553,251.783 524.553,251.283 529.5,250.5C 541.879,250.891 555.213,251.391 569.5,252C 570.931,252.465 572.097,253.299 573,254.5C 573.793,258.423 573.626,262.256 572.5,266C 573.167,266.667 573.833,267.333 574.5,268C 573.606,271.414 572.939,274.914 572.5,278.5C 572.613,281.753 572.946,285.086 573.5,288.5C 572.975,289.192 572.308,289.692 571.5,290C 571.995,293.722 572.329,297.056 572.5,300C 570.96,305.641 569.293,311.141 567.5,316.5 Z"/></g>
<g><path style="opacity:1" fill="#7e7e7e" d="M 565.5,268.5 C 565.5,270.833 565.5,273.167 565.5,275.5C 563.901,275.768 562.568,275.434 561.5,274.5C 562.5,274.5 563.5,274.5 564.5,274.5C 564.205,272.265 564.539,270.265 565.5,268.5 Z"/></g>
<g><path style="opacity:0.977" fill="#fcfcfc" d="M 565.5,259.5 C 565.5,262.5 565.5,265.5 565.5,268.5C 564.539,270.265 564.205,272.265 564.5,274.5C 563.5,274.5 562.5,274.5 561.5,274.5C 547.136,273.115 532.803,271.448 518.5,269.5C 518.5,267.5 518.5,265.5 518.5,263.5C 518.5,262.167 518.5,260.833 518.5,259.5C 534.167,259.5 549.833,259.5 565.5,259.5 Z"/></g>
<g><path style="opacity:0.964" fill="#c8c8c8" d="M 565.5,259.5 C 549.833,259.5 534.167,259.5 518.5,259.5C 518.5,260.833 518.5,262.167 518.5,263.5C 517.549,262.081 517.216,260.415 517.5,258.5C 533.675,258.17 549.675,258.504 565.5,259.5 Z"/></g>
<g><path style="opacity:0.196" fill="#e0e0e0" d="M 567.5,317.5 C 567.539,320.089 566.539,322.089 564.5,323.5C 564.992,321.181 565.992,319.181 567.5,317.5 Z"/></g>
<g><path style="opacity:0.984" fill="#333333" d="M 476.5,328.5 C 470.167,328.5 463.833,328.5 457.5,328.5C 451.824,328.666 446.157,328.499 440.5,328C 436.163,326.661 432.663,324.161 430,320.5C 428.386,301.886 428.052,283.219 429,264.5C 430.333,263.167 431.667,263.167 433,264.5C 433.333,281.833 433.667,299.167 434,316.5C 434.785,318.286 435.951,319.786 437.5,321C 453.741,322.636 470.075,322.97 486.5,322C 488.848,321.654 490.681,320.487 492,318.5C 493.65,289.586 493.983,260.586 493,231.5C 488,225.167 483,218.833 478,212.5C 476.836,204.872 476.002,197.205 475.5,189.5C 467.5,189.5 459.5,189.5 451.5,189.5C 452.441,198.945 450.941,207.945 447,216.5C 441.92,220.909 437.586,225.909 434,231.5C 433.667,239.5 433.333,247.5 433,255.5C 431.951,256.517 430.784,256.684 429.5,256C 428.351,247.579 428.184,239.079 429,230.5C 429.561,228.275 430.561,226.275 432,224.5C 437.47,220.036 441.803,214.703 445,208.5C 445.667,201.833 445.667,195.167 445,188.5C 442.026,186.087 440.859,182.921 441.5,179C 440.493,174.02 442.16,170.353 446.5,168C 457.833,167.333 469.167,167.333 480.5,168C 481.579,168.956 482.745,169.789 484,170.5C 485.545,175.047 485.879,179.713 485,184.5C 484.363,186.303 483.197,187.636 481.5,188.5C 480.233,197.499 481.4,206.165 485,214.5C 490.47,218.964 494.803,224.297 498,230.5C 498.667,259.167 498.667,287.833 498,316.5C 497.529,318.246 496.862,319.913 496,321.5C 490.715,327.096 484.215,329.429 476.5,328.5 Z"/></g>
<g><path style="opacity:1" fill="#fdfdfd" d="M 446.5,173.5 C 457.833,173.5 469.167,173.5 480.5,173.5C 480.5,176.833 480.5,180.167 480.5,183.5C 469.167,183.5 457.833,183.5 446.5,183.5C 446.5,180.167 446.5,176.833 446.5,173.5 Z"/></g>
<g><path style="opacity:0.049" fill="#eaeaea" d="M 562.5,325.5 C 561.216,327.614 559.216,328.614 556.5,328.5C 558.25,327.13 560.25,326.13 562.5,325.5 Z"/></g>
<g><path style="opacity:0.443" fill="#959595" d="M 419.5,350.5 C 424.65,349.349 429.984,349.183 435.5,350C 436.416,350.278 437.082,350.778 437.5,351.5C 431.545,350.637 425.545,350.303 419.5,350.5 Z"/></g>
<g><path style="opacity:0.996" fill="#0c0c0c" d="M 419.5,350.5 C 425.545,350.303 431.545,350.637 437.5,351.5C 440.089,352.419 442.089,354.086 443.5,356.5C 444.584,359.004 445.917,361.337 447.5,363.5C 447.334,371.84 447.5,380.173 448,388.5C 448.671,389.252 449.504,389.586 450.5,389.5C 452.595,389.76 453.928,390.926 454.5,393C 453.256,395.382 451.423,397.215 449,398.5C 449.274,404.212 449.107,409.878 448.5,415.5C 447.343,418.273 446.676,421.273 446.5,424.5C 445.557,427.109 443.89,429.109 441.5,430.5C 439.973,430.427 438.973,431.094 438.5,432.5C 436.316,434.585 433.649,435.585 430.5,435.5C 426.821,435.276 423.154,434.942 419.5,434.5C 418.508,434.672 417.842,434.338 417.5,433.5C 417.027,432.094 416.027,431.427 414.5,431.5C 412.086,430.089 410.419,428.089 409.5,425.5C 407.983,416.119 406.983,406.786 406.5,397.5C 405.508,397.672 404.842,397.338 404.5,396.5C 404.027,395.094 403.027,394.427 401.5,394.5C 400.167,393.5 400.167,392.5 401.5,391.5C 403.027,391.573 404.027,390.906 404.5,389.5C 404.842,388.662 405.508,388.328 406.5,388.5C 407.28,379.652 407.947,370.652 408.5,361.5C 409.906,361.027 410.573,360.027 410.5,358.5C 412.833,356.833 414.833,354.833 416.5,352.5C 418.027,352.573 419.027,351.906 419.5,350.5 Z M 430.5,365.5 C 430.5,366.167 430.833,366.5 431.5,366.5C 432.622,382.802 432.789,399.135 432,415.5C 431.338,416.984 430.504,418.317 429.5,419.5C 427.435,419.483 425.435,419.15 423.5,418.5C 423.073,415.99 422.407,413.657 421.5,411.5C 421.5,398.833 421.5,386.167 421.5,373.5C 421.291,367.381 424.291,364.714 430.5,365.5 Z"/></g>
<g><path style="opacity:0.997" fill="#121212" d="M 542.5,350.5 C 543.514,351.674 544.847,352.34 546.5,352.5C 547.167,352.5 547.5,352.833 547.5,353.5C 548.5,355.167 549.833,356.5 551.5,357.5C 551.427,359.027 552.094,360.027 553.5,360.5C 553.41,363.152 554.076,365.485 555.5,367.5C 555.905,374.923 556.905,382.257 558.5,389.5C 558.81,391.144 559.81,392.144 561.5,392.5C 562.833,392.833 562.833,393.167 561.5,393.5C 560.5,393.833 559.833,394.5 559.5,395.5C 559.027,396.906 558.027,397.573 556.5,397.5C 555.627,405.669 554.961,414.003 554.5,422.5C 553.263,423.965 552.263,425.632 551.5,427.5C 551.5,428.167 551.167,428.5 550.5,428.5C 549.5,428.833 548.833,429.5 548.5,430.5C 548.5,431.167 548.167,431.5 547.5,431.5C 541.244,435.061 534.578,436.061 527.5,434.5C 525.847,434.34 524.514,433.674 523.5,432.5C 522.415,430.413 520.749,429.08 518.5,428.5C 516.254,426.351 514.754,423.684 514,420.5C 513.5,412.841 513.334,405.174 513.5,397.5C 513.027,396.094 512.027,395.427 510.5,395.5C 509.766,394.292 509.433,392.959 509.5,391.5C 509.5,390.833 509.833,390.5 510.5,390.5C 512.027,390.573 513.027,389.906 513.5,388.5C 514.285,379.986 514.952,371.319 515.5,362.5C 517.408,361.514 518.408,359.848 518.5,357.5C 519.833,356.833 520.833,355.833 521.5,354.5C 523.749,353.92 525.415,352.587 526.5,350.5C 531.833,349.167 537.167,349.167 542.5,350.5 Z M 531.5,365.5 C 533.5,365.5 535.5,365.5 537.5,365.5C 537.833,366.5 538.5,367.167 539.5,367.5C 539.805,384.547 539.472,401.547 538.5,418.5C 535.833,419.833 533.167,419.833 530.5,418.5C 529.528,401.547 529.195,384.547 529.5,367.5C 530.5,367.167 531.167,366.5 531.5,365.5 Z"/></g>
<g><path style="opacity:0.145" fill="#d2d2d2" d="M 542.5,350.5 C 544.38,350.229 545.713,350.896 546.5,352.5C 544.847,352.34 543.514,351.674 542.5,350.5 Z"/></g>
<g><path style="opacity:0.994" fill="#0f0f0f" d="M 658.5,353.5 C 659.5,355.167 660.833,356.5 662.5,357.5C 662.427,359.027 663.094,360.027 664.5,360.5C 664.41,363.152 665.076,365.485 666.5,367.5C 667.167,374.345 667.833,381.345 668.5,388.5C 673.956,392.135 673.622,395.135 667.5,397.5C 666.627,405.669 665.961,414.003 665.5,422.5C 664.306,426.363 661.973,429.363 658.5,431.5C 656.973,431.427 655.973,432.094 655.5,433.5C 653.447,433.402 651.78,434.069 650.5,435.5C 646.143,435.414 641.81,435.08 637.5,434.5C 637.027,433.094 636.027,432.427 634.5,432.5C 634.027,431.094 633.027,430.427 631.5,430.5C 630.5,430.167 629.833,429.5 629.5,428.5C 629.573,426.973 628.906,425.973 627.5,425.5C 626.073,423.852 625.24,421.852 625,419.5C 625.085,411.567 624.252,403.9 622.5,396.5C 621.058,395.18 620.392,393.514 620.5,391.5C 620.5,390.833 620.833,390.5 621.5,390.5C 623.027,390.573 624.027,389.906 624.5,388.5C 625.285,379.986 625.952,371.319 626.5,362.5C 627.353,358.98 629.353,356.313 632.5,354.5C 634.749,353.92 636.415,352.587 637.5,350.5C 642.65,349.349 647.984,349.183 653.5,350C 655.584,350.697 657.251,351.864 658.5,353.5 Z M 642.5,365.5 C 644.5,365.5 646.5,365.5 648.5,365.5C 648.5,366.833 649.167,367.5 650.5,367.5C 650.667,380.171 650.5,392.838 650,405.5C 646.196,406.899 643.196,405.899 641,402.5C 640.5,390.838 640.333,379.171 640.5,367.5C 641.5,367.167 642.167,366.5 642.5,365.5 Z"/></g>
<g><path style="opacity:0.624" fill="#797979" d="M 419.5,350.5 C 419.027,351.906 418.027,352.573 416.5,352.5C 416.973,351.094 417.973,350.427 419.5,350.5 Z"/></g>
<g><path style="opacity:0.995" fill="#141414" d="M 585.5,369.5 C 586.5,372.167 587.5,372.167 588.5,369.5C 590.326,364.516 592.659,359.849 595.5,355.5C 596.906,355.027 597.573,354.027 597.5,352.5C 597.611,351.883 597.944,351.383 598.5,351C 602.833,350.333 607.167,350.333 611.5,351C 612.357,351.689 613.023,352.522 613.5,353.5C 608.667,363.167 603.833,372.833 599,382.5C 598.398,385.221 598.565,387.887 599.5,390.5C 599.402,392.553 600.069,394.22 601.5,395.5C 601.402,397.553 602.069,399.22 603.5,400.5C 603.402,402.553 604.069,404.22 605.5,405.5C 606.537,406.93 607.204,408.597 607.5,410.5C 607.402,412.553 608.069,414.22 609.5,415.5C 609.402,417.553 610.069,419.22 611.5,420.5C 611.402,422.553 612.069,424.22 613.5,425.5C 616.361,428.521 616.695,431.687 614.5,435C 609.98,435.814 605.646,435.647 601.5,434.5C 600.833,433.167 599.833,432.167 598.5,431.5C 598.598,429.447 597.931,427.78 596.5,426.5C 596.598,424.447 595.931,422.78 594.5,421.5C 593.463,420.07 592.796,418.403 592.5,416.5C 592.598,414.447 591.931,412.78 590.5,411.5C 590.771,409.62 590.104,408.287 588.5,407.5C 587.09,406.172 585.924,406.505 585,408.5C 584.5,416.827 584.334,425.16 584.5,433.5C 584.5,434.167 584.167,434.5 583.5,434.5C 579.434,434.693 575.434,434.36 571.5,433.5C 571.5,433.167 571.5,432.833 571.5,432.5C 572.146,420.12 571.479,408.12 569.5,396.5C 567.973,396.573 566.973,395.906 566.5,394.5C 566.392,392.486 567.058,390.82 568.5,389.5C 570.022,376.985 571.189,364.318 572,351.5C 575.744,350.374 579.577,350.207 583.5,351C 584,351.5 584.5,352 585,352.5C 585.499,358.157 585.666,363.824 585.5,369.5 Z"/></g>
<g><path style="opacity:0.998" fill="#0e0e0e" d="M 391.5,353.5 C 390.854,365.88 391.521,377.88 393.5,389.5C 395.027,389.427 396.027,390.094 396.5,391.5C 396.608,393.514 395.942,395.18 394.5,396.5C 394.158,397.338 393.492,397.672 392.5,397.5C 391.796,409.705 391.129,422.038 390.5,434.5C 386.689,435.645 382.689,435.812 378.5,435C 377.944,434.617 377.611,434.117 377.5,433.5C 377.666,424.827 377.5,416.16 377,407.5C 376.023,406.226 375.189,406.226 374.5,407.5C 372.882,410.171 372.215,413.171 372.5,416.5C 372.784,418.415 372.451,420.081 371.5,421.5C 369.755,425.2 368.755,429.2 368.5,433.5C 368.389,434.117 368.056,434.617 367.5,435C 364.167,435.667 360.833,435.667 357.5,435C 356.944,434.617 356.611,434.117 356.5,433.5C 355.767,428.555 354.434,423.888 352.5,419.5C 352.308,414.73 351.475,410.063 350,405.5C 349.29,404.027 348.124,403.36 346.5,403.5C 346.5,413.167 346.5,422.833 346.5,432.5C 346.586,433.496 346.252,434.329 345.5,435C 341.5,435.667 337.5,435.667 333.5,435C 333,434.5 332.5,434 332,433.5C 332.118,420.922 331.285,408.588 329.5,396.5C 328.058,395.18 327.392,393.514 327.5,391.5C 329.027,391.573 330.027,390.906 330.5,389.5C 332.48,377.545 333.146,365.212 332.5,352.5C 338.653,351.347 344.986,351.18 351.5,352C 353.229,353.789 353.896,355.956 353.5,358.5C 353.294,361.495 353.96,364.162 355.5,366.5C 357.218,373.756 358.551,381.09 359.5,388.5C 359.294,391.495 359.96,394.162 361.5,396.5C 362.649,396.209 363.316,395.376 363.5,394C 365.205,383.971 367.205,374.137 369.5,364.5C 371.011,361.456 371.678,358.122 371.5,354.5C 371.414,353.504 371.748,352.671 372.5,352C 377.746,350.494 383.079,350.161 388.5,351C 390.119,351.236 391.119,352.069 391.5,353.5 Z"/></g>
<g><path style="opacity:0.122" fill="#c5c5c5" d="M 492.5,351.5 C 494.104,352.287 494.771,353.62 494.5,355.5C 493.326,354.486 492.66,353.153 492.5,351.5 Z"/></g>
<g><path style="opacity:0.737" fill="#636363" d="M 526.5,350.5 C 525.415,352.587 523.749,353.92 521.5,354.5C 522.585,352.413 524.251,351.08 526.5,350.5 Z"/></g>
<g><path style="opacity:0.102" fill="#c0c0c0" d="M 547.5,353.5 C 549.833,353.833 551.167,355.167 551.5,357.5C 549.833,356.5 548.5,355.167 547.5,353.5 Z"/></g>
<g><path style="opacity:0.737" fill="#636363" d="M 637.5,350.5 C 636.415,352.587 634.749,353.92 632.5,354.5C 633.585,352.413 635.251,351.08 637.5,350.5 Z"/></g>
<g><path style="opacity:0.102" fill="#c0c0c0" d="M 658.5,353.5 C 660.833,353.833 662.167,355.167 662.5,357.5C 660.833,356.5 659.5,355.167 658.5,353.5 Z"/></g>
<g><path style="opacity:0.325" fill="#b8b8b8" d="M 597.5,352.5 C 597.573,354.027 596.906,355.027 595.5,355.5C 595.427,353.973 596.094,352.973 597.5,352.5 Z"/></g>
<g><path style="opacity:0.541" fill="#a0a0a0" d="M 416.5,352.5 C 414.833,354.833 412.833,356.833 410.5,358.5C 411.5,355.5 413.5,353.5 416.5,352.5 Z"/></g>
<g><path style="opacity:0.357" fill="#c1c1c1" d="M 521.5,354.5 C 520.833,355.833 519.833,356.833 518.5,357.5C 518.5,355.5 519.5,354.5 521.5,354.5 Z"/></g>
<g><path style="opacity:0.353" fill="#a5a5a5" d="M 551.5,357.5 C 552.906,357.973 553.573,358.973 553.5,360.5C 552.094,360.027 551.427,359.027 551.5,357.5 Z"/></g>
<g><path style="opacity:0.353" fill="#a6a6a6" d="M 662.5,357.5 C 663.906,357.973 664.573,358.973 664.5,360.5C 663.094,360.027 662.427,359.027 662.5,357.5 Z"/></g>
<g><path style="opacity:0.345" fill="#a5a5a5" d="M 410.5,358.5 C 410.573,360.027 409.906,361.027 408.5,361.5C 408.427,359.973 409.094,358.973 410.5,358.5 Z"/></g>
<g><path style="opacity:0.114" fill="#cbcbcb" d="M 443.5,356.5 C 446.112,358.052 447.445,360.386 447.5,363.5C 445.917,361.337 444.584,359.004 443.5,356.5 Z"/></g>
<g><path style="opacity:0.91" fill="#5b5b5b" d="M 518.5,357.5 C 518.408,359.848 517.408,361.514 515.5,362.5C 515.75,360.326 516.75,358.659 518.5,357.5 Z"/></g>
<g><path style="opacity:0.02" fill="#d8d8d8" d="M 353.5,358.5 C 354.768,360.905 355.435,363.572 355.5,366.5C 353.96,364.162 353.294,361.495 353.5,358.5 Z"/></g>
<g><path style="opacity:0.365" fill="#bbbbbb" d="M 371.5,354.5 C 371.678,358.122 371.011,361.456 369.5,364.5C 369.549,360.922 370.215,357.589 371.5,354.5 Z"/></g>
<g><path style="opacity:0.047" fill="#e2e2e2" d="M 430.5,365.5 C 424.291,364.714 421.291,367.381 421.5,373.5C 420.321,365.666 423.321,363 430.5,365.5 Z"/></g>
<g><path style="opacity:0.651" fill="#a9a9a9" d="M 537.5,365.5 C 538.833,365.5 539.5,366.167 539.5,367.5C 538.5,367.167 537.833,366.5 537.5,365.5 Z"/></g>
<g><path style="opacity:0.122" fill="#f3f3f3" d="M 648.5,365.5 C 649.5,365.833 650.167,366.5 650.5,367.5C 649.167,367.5 648.5,366.833 648.5,365.5 Z"/></g>
<g><path style="opacity:0.247" fill="#d5d5d5" d="M 531.5,365.5 C 531.167,366.5 530.5,367.167 529.5,367.5C 529.5,366.167 530.167,365.5 531.5,365.5 Z"/></g>
<g><path style="opacity:0.569" fill="#8a8a8a" d="M 553.5,360.5 C 555.163,362.438 555.829,364.772 555.5,367.5C 554.076,365.485 553.41,363.152 553.5,360.5 Z"/></g>
<g><path style="opacity:0.247" fill="#d5d5d5" d="M 642.5,365.5 C 642.167,366.5 641.5,367.167 640.5,367.5C 640.5,366.167 641.167,365.5 642.5,365.5 Z"/></g>
<g><path style="opacity:0.569" fill="#8a8a8a" d="M 664.5,360.5 C 666.163,362.438 666.829,364.772 666.5,367.5C 665.076,365.485 664.41,363.152 664.5,360.5 Z"/></g>
<g><path style="opacity:0.185" fill="#a5a5a5" d="M 408.5,361.5 C 407.947,370.652 407.28,379.652 406.5,388.5C 406.334,380.493 406.5,372.493 407,364.5C 407.232,363.263 407.732,362.263 408.5,361.5 Z"/></g>
<g><path style="opacity:0.045" fill="#e3e3e3" d="M 515.5,362.5 C 514.952,371.319 514.285,379.986 513.5,388.5C 513.334,380.493 513.5,372.493 514,364.5C 514.278,363.584 514.778,362.918 515.5,362.5 Z"/></g>
<g><path style="opacity:0.046" fill="#dadada" d="M 626.5,362.5 C 625.952,371.319 625.285,379.986 624.5,388.5C 624.334,380.826 624.5,373.159 625,365.5C 625.232,364.263 625.732,363.263 626.5,362.5 Z"/></g>
<g><path style="opacity:0.827" fill="#767676" d="M 585.5,369.5 C 586.5,370.833 587.5,370.833 588.5,369.5C 587.5,372.167 586.5,372.167 585.5,369.5 Z"/></g>
<g><path style="opacity:0.072" fill="#d3d3d3" d="M 431.5,366.5 C 432.117,366.611 432.617,366.944 433,367.5C 433.667,383.833 433.667,400.167 433,416.5C 432.578,418.426 431.411,419.426 429.5,419.5C 430.504,418.317 431.338,416.984 432,415.5C 432.789,399.135 432.622,382.802 431.5,366.5 Z"/></g>
<g><path style="opacity:0.825" fill="#4f4f4f" d="M 447.5,363.5 C 448.329,371.323 448.829,379.323 449,387.5C 449.717,388.044 450.217,388.711 450.5,389.5C 449.504,389.586 448.671,389.252 448,388.5C 447.5,380.173 447.334,371.84 447.5,363.5 Z"/></g>
<g><path style="opacity:0.044" fill="#f7f7f7" d="M 640.5,367.5 C 640.333,379.171 640.5,390.838 641,402.5C 643.196,405.899 646.196,406.899 650,405.5C 650.5,392.838 650.667,380.171 650.5,367.5C 651.662,383.661 651.828,399.995 651,416.5C 648.828,420.738 645.662,421.572 641.5,419C 640.874,418.25 640.374,417.416 640,416.5C 639.172,399.995 639.338,383.661 640.5,367.5 Z"/></g>
<g><path style="opacity:0.02" fill="#efefef" d="M 391.5,353.5 C 392.186,365.402 392.852,377.402 393.5,389.5C 391.521,377.88 390.854,365.88 391.5,353.5 Z"/></g>
<g><path style="opacity:0.998" fill="#131313" d="M 492.5,351.5 C 492.66,353.153 493.326,354.486 494.5,355.5C 496.574,363.679 497.907,372.012 498.5,380.5C 498.421,383.271 498.921,385.937 500,388.5C 500.671,389.252 501.504,389.586 502.5,389.5C 507.289,391.2 507.622,393.533 503.5,396.5C 502.526,398.743 502.192,401.076 502.5,403.5C 502.43,407.425 503.097,411.091 504.5,414.5C 506.313,420.695 507.147,427.028 507,433.5C 506.5,434 506,434.5 505.5,435C 501.5,435.667 497.5,435.667 493.5,435C 492.619,434.292 491.953,433.458 491.5,432.5C 490.894,420.881 489.228,409.548 486.5,398.5C 486.5,398.167 486.5,397.833 486.5,397.5C 486.726,394.751 486.393,392.084 485.5,389.5C 484.349,388.269 483.183,388.269 482,389.5C 479.412,404.116 477.245,418.782 475.5,433.5C 475.5,434.167 475.167,434.5 474.5,434.5C 470.486,434.666 466.486,434.499 462.5,434C 461.549,430.943 461.216,427.777 461.5,424.5C 462.313,416.615 463.647,408.949 465.5,401.5C 466.139,400.903 466.472,400.07 466.5,399C 466.316,397.624 465.649,396.791 464.5,396.5C 464.027,395.094 463.027,394.427 461.5,394.5C 460.167,393.5 460.167,392.5 461.5,391.5C 463.027,391.573 464.027,390.906 464.5,389.5C 464.842,388.662 465.508,388.328 466.5,388.5C 468.256,387.448 468.923,385.781 468.5,383.5C 469.689,373.034 471.522,362.701 474,352.5C 474.5,352 475,351.5 475.5,351C 481.349,350.182 487.015,350.348 492.5,351.5 Z"/></g>
<g><path style="opacity:0.044" fill="#e1e1e1" d="M 332.5,352.5 C 333.146,365.212 332.48,377.545 330.5,389.5C 331.148,377.068 331.815,364.735 332.5,352.5 Z"/></g>
<g><path style="opacity:0.018" fill="#d7d7d7" d="M 468.5,383.5 C 468.923,385.781 468.256,387.448 466.5,388.5C 467.024,386.694 467.691,385.028 468.5,383.5 Z"/></g>
<g><path style="opacity:0.067" fill="#dddddd" d="M 498.5,380.5 C 499.434,383.617 500.767,386.617 502.5,389.5C 501.504,389.586 500.671,389.252 500,388.5C 498.921,385.937 498.421,383.271 498.5,380.5 Z"/></g>
<g><path style="opacity:0.541" fill="#aeaeae" d="M 513.5,388.5 C 513.027,389.906 512.027,390.573 510.5,390.5C 510.973,389.094 511.973,388.427 513.5,388.5 Z"/></g>
<g><path style="opacity:0.541" fill="#aeaeae" d="M 624.5,388.5 C 624.027,389.906 623.027,390.573 621.5,390.5C 621.973,389.094 622.973,388.427 624.5,388.5 Z"/></g>
<g><path style="opacity:0.596" fill="#888888" d="M 330.5,389.5 C 330.027,390.906 329.027,391.573 327.5,391.5C 327.973,390.094 328.973,389.427 330.5,389.5 Z"/></g>
<g><path style="opacity:0.522" fill="#a7a7a7" d="M 404.5,389.5 C 404.027,390.906 403.027,391.573 401.5,391.5C 401.973,390.094 402.973,389.427 404.5,389.5 Z"/></g>
<g><path style="opacity:0.498" fill="#afafaf" d="M 464.5,389.5 C 464.027,390.906 463.027,391.573 461.5,391.5C 461.973,390.094 462.973,389.427 464.5,389.5 Z"/></g>
<g><path style="opacity:0.392" fill="#848484" d="M 558.5,389.5 C 560.19,389.856 561.19,390.856 561.5,392.5C 559.81,392.144 558.81,391.144 558.5,389.5 Z"/></g>
<g><path style="opacity:0.408" fill="#a1a1a1" d="M 568.5,389.5 C 567.058,390.82 566.392,392.486 566.5,394.5C 565.402,393.399 565.235,392.066 566,390.5C 566.671,389.748 567.504,389.414 568.5,389.5 Z"/></g>
<g><path style="opacity:0.02" fill="#d9d9d9" d="M 359.5,388.5 C 360.768,390.905 361.435,393.572 361.5,396.5C 359.96,394.162 359.294,391.495 359.5,388.5 Z"/></g>
<g><path style="opacity:0.075" fill="#c7c7c7" d="M 486.5,397.5 C 485.616,394.977 484.782,392.31 484,389.5C 483.667,389.833 483.333,390.167 483,390.5C 480.809,405.033 478.309,419.366 475.5,433.5C 477.245,418.782 479.412,404.116 482,389.5C 483.183,388.269 484.349,388.269 485.5,389.5C 486.393,392.084 486.726,394.751 486.5,397.5 Z"/></g>
<g><path style="opacity:0.006" fill="#f6f6f7" d="M 539.5,367.5 C 540.662,383.995 540.828,400.662 540,417.5C 539.617,418.056 539.117,418.389 538.5,418.5C 539.472,401.547 539.805,384.547 539.5,367.5 Z"/></g>
<g><path style="opacity:0.118" fill="#e4e4e4" d="M 599.5,390.5 C 600.931,391.78 601.598,393.447 601.5,395.5C 600.069,394.22 599.402,392.553 599.5,390.5 Z"/></g>
<g><path style="opacity:0.471" fill="#9b9b9b" d="M 327.5,391.5 C 327.392,393.514 328.058,395.18 329.5,396.5C 328.504,396.586 327.671,396.252 327,395.5C 326.235,393.934 326.402,392.601 327.5,391.5 Z"/></g>
<g><path style="opacity:0.059" fill="#c1c1c1" d="M 396.5,391.5 C 397.598,392.601 397.765,393.934 397,395.5C 396.329,396.252 395.496,396.586 394.5,396.5C 395.942,395.18 396.608,393.514 396.5,391.5 Z"/></g>
<g><path style="opacity:0.365" fill="#959595" d="M 509.5,391.5 C 509.433,392.959 509.766,394.292 510.5,395.5C 509.414,395.38 508.747,394.713 508.5,393.5C 508.543,392.584 508.876,391.917 509.5,391.5 Z"/></g>
<g><path style="opacity:0.078" fill="#b9b9b9" d="M 561.5,393.5 C 561.5,394.833 560.833,395.5 559.5,395.5C 559.833,394.5 560.5,393.833 561.5,393.5 Z"/></g>
<g><path style="opacity:0.392" fill="#a8a8a8" d="M 620.5,391.5 C 620.392,393.514 621.058,395.18 622.5,396.5C 621.504,396.586 620.671,396.252 620,395.5C 619.235,393.934 619.402,392.601 620.5,391.5 Z"/></g>
<g><path style="opacity:0.322" fill="#bdbdbd" d="M 401.5,394.5 C 403.027,394.427 404.027,395.094 404.5,396.5C 402.973,396.573 401.973,395.906 401.5,394.5 Z"/></g>
<g><path style="opacity:0.278" fill="#d4d4d4" d="M 461.5,394.5 C 463.027,394.427 464.027,395.094 464.5,396.5C 462.973,396.573 461.973,395.906 461.5,394.5 Z"/></g>
<g><path style="opacity:0.357" fill="#c3c3c3" d="M 510.5,395.5 C 512.027,395.427 513.027,396.094 513.5,397.5C 511.973,397.573 510.973,396.906 510.5,395.5 Z"/></g>
<g><path style="opacity:0.202" fill="#acacac" d="M 406.5,397.5 C 406.983,406.786 407.983,416.119 409.5,425.5C 408.034,424.653 407.2,423.32 407,421.5C 406.5,413.507 406.334,405.507 406.5,397.5 Z"/></g>
<g><path style="opacity:0.204" fill="#c0c0c0" d="M 464.5,396.5 C 465.649,396.791 466.316,397.624 466.5,399C 466.472,400.07 466.139,400.903 465.5,401.5C 465.634,399.708 465.301,398.042 464.5,396.5 Z"/></g>
<g><path style="opacity:0.072" fill="#d5d5d5" d="M 556.5,397.5 C 556.666,404.175 556.5,410.842 556,417.5C 555.802,419.382 555.302,421.048 554.5,422.5C 554.961,414.003 555.627,405.669 556.5,397.5 Z"/></g>
<g><path style="opacity:0.048" fill="#e2e2e2" d="M 569.5,396.5 C 571.479,408.12 572.146,420.12 571.5,432.5C 570.814,420.598 570.148,408.598 569.5,396.5 Z"/></g>
<g><path style="opacity:0.122" fill="#e2e2e2" d="M 601.5,395.5 C 602.931,396.78 603.598,398.447 603.5,400.5C 602.069,399.22 601.402,397.553 601.5,395.5 Z"/></g>
<g><path style="opacity:0.072" fill="#d5d5d5" d="M 667.5,397.5 C 667.666,404.175 667.5,410.842 667,417.5C 666.802,419.382 666.302,421.048 665.5,422.5C 665.961,414.003 666.627,405.669 667.5,397.5 Z"/></g>
<g><path style="opacity:0.125" fill="#dfdfdf" d="M 603.5,400.5 C 604.931,401.78 605.598,403.447 605.5,405.5C 604.069,404.22 603.402,402.553 603.5,400.5 Z"/></g>
<g><path style="opacity:0.314" fill="#b4b4b4" d="M 486.5,398.5 C 489.228,409.548 490.894,420.881 491.5,432.5C 489.292,421.379 487.625,410.046 486.5,398.5 Z"/></g>
<g><path style="opacity:0.012" fill="#dfdfdf" d="M 502.5,403.5 C 503.903,406.909 504.57,410.575 504.5,414.5C 503.097,411.091 502.43,407.425 502.5,403.5 Z"/></g>
<g><path style="opacity:0.278" fill="#d5d5d5" d="M 588.5,407.5 C 590.104,408.287 590.771,409.62 590.5,411.5C 589.326,410.486 588.66,409.153 588.5,407.5 Z"/></g>
<g><path style="opacity:0.066" fill="#d7d7d7" d="M 374.5,407.5 C 375.189,406.226 376.023,406.226 377,407.5C 377.5,416.16 377.666,424.827 377.5,433.5C 376.671,425.677 376.171,417.677 376,409.5C 375.722,408.584 375.222,407.918 374.5,407.5 Z"/></g>
<g><path style="opacity:0.016" fill="#e5e5e5" d="M 421.5,411.5 C 422.407,413.657 423.073,415.99 423.5,418.5C 422.883,418.389 422.383,418.056 422,417.5C 421.505,415.527 421.338,413.527 421.5,411.5 Z"/></g>
<g><path style="opacity:0.067" fill="#dadada" d="M 374.5,407.5 C 374.324,410.727 373.657,413.727 372.5,416.5C 372.215,413.171 372.882,410.171 374.5,407.5 Z"/></g>
<g><path style="opacity:0.137" fill="#dbdbdb" d="M 607.5,410.5 C 608.931,411.78 609.598,413.447 609.5,415.5C 608.069,414.22 607.402,412.553 607.5,410.5 Z"/></g>
<g><path style="opacity:0.255" fill="#d7d7d7" d="M 590.5,411.5 C 591.931,412.78 592.598,414.447 592.5,416.5C 591.069,415.22 590.402,413.553 590.5,411.5 Z"/></g>
<g><path style="opacity:0.02" fill="#f1f1f1" d="M 392.5,397.5 C 392.667,409.505 392.5,421.505 392,433.5C 391.617,434.056 391.117,434.389 390.5,434.5C 391.129,422.038 391.796,409.705 392.5,397.5 Z"/></g>
<g><path style="opacity:0.063" fill="#cbcbcb" d="M 448.5,415.5 C 448.785,418.829 448.118,421.829 446.5,424.5C 446.676,421.273 447.343,418.273 448.5,415.5 Z"/></g>
<g><path style="opacity:0.145" fill="#d8d8d8" d="M 609.5,415.5 C 610.931,416.78 611.598,418.447 611.5,420.5C 610.069,419.22 609.402,417.553 609.5,415.5 Z"/></g>
<g><path style="opacity:0.243" fill="#c3c3c3" d="M 423.5,418.5 C 425.435,419.15 427.435,419.483 429.5,419.5C 428.903,420.139 428.07,420.472 427,420.5C 425.301,420.613 424.134,419.947 423.5,418.5 Z"/></g>
<g><path style="opacity:0.147" fill="#bdbdbd" d="M 530.5,418.5 C 533.167,419.833 535.833,419.833 538.5,418.5C 537.688,419.993 536.355,420.66 534.5,420.5C 532.645,420.66 531.312,419.993 530.5,418.5 Z"/></g>
<g><path style="opacity:0.047" fill="#e4e4e4" d="M 588.5,407.5 C 587.542,407.953 586.708,408.619 586,409.5C 585.829,417.677 585.329,425.677 584.5,433.5C 584.334,425.16 584.5,416.827 585,408.5C 585.924,406.505 587.09,406.172 588.5,407.5 Z"/></g>
<g><path style="opacity:0.022" fill="#cacaca" d="M 352.5,419.5 C 354.434,423.888 355.767,428.555 356.5,433.5C 354.256,429.207 352.923,424.54 352.5,419.5 Z"/></g>
<g><path style="opacity:0.157" fill="#d4d4d4" d="M 611.5,420.5 C 612.931,421.78 613.598,423.447 613.5,425.5C 612.069,424.22 611.402,422.553 611.5,420.5 Z"/></g>
<g><path style="opacity:0.02" fill="#e1e1e1" d="M 352.5,419.5 C 351.178,414.566 349.678,409.566 348,404.5C 347.83,414.009 347.33,423.342 346.5,432.5C 346.5,422.833 346.5,413.167 346.5,403.5C 348.124,403.36 349.29,404.027 350,405.5C 351.475,410.063 352.308,414.73 352.5,419.5 Z"/></g>
<g><path style="opacity:0.29" fill="#cccccc" d="M 594.5,421.5 C 595.931,422.78 596.598,424.447 596.5,426.5C 595.069,425.22 594.402,423.553 594.5,421.5 Z"/></g>
<g><path style="opacity:0.118" fill="#d9d9d9" d="M 554.5,422.5 C 554.741,425.034 553.741,426.7 551.5,427.5C 552.263,425.632 553.263,423.965 554.5,422.5 Z"/></g>
<g><path style="opacity:0.033" fill="#e0e0e0" d="M 627.5,425.5 C 628.906,425.973 629.573,426.973 629.5,428.5C 627.952,428.179 627.285,427.179 627.5,425.5 Z"/></g>
<g><path style="opacity:0.141" fill="#c7c7c7" d="M 371.5,421.5 C 371.245,425.8 370.245,429.8 368.5,433.5C 368.755,429.2 369.755,425.2 371.5,421.5 Z"/></g>
<g><path style="opacity:0.612" fill="#a2a2a2" d="M 518.5,428.5 C 520.749,429.08 522.415,430.413 523.5,432.5C 521.251,431.92 519.585,430.587 518.5,428.5 Z"/></g>
<g><path style="opacity:0.004" fill="#d9d9d9" d="M 550.5,428.5 C 550.5,429.833 549.833,430.5 548.5,430.5C 548.833,429.5 549.5,428.833 550.5,428.5 Z"/></g>
<g><path style="opacity:0.337" fill="#b7b7b7" d="M 596.5,426.5 C 597.931,427.78 598.598,429.447 598.5,431.5C 597.069,430.22 596.402,428.553 596.5,426.5 Z"/></g>
<g><path style="opacity:0.082" fill="#dcdcdc" d="M 441.5,430.5 C 441.027,431.906 440.027,432.573 438.5,432.5C 438.973,431.094 439.973,430.427 441.5,430.5 Z"/></g>
<g><path style="opacity:0.365" fill="#bbbbbb" d="M 631.5,430.5 C 633.027,430.427 634.027,431.094 634.5,432.5C 632.973,432.573 631.973,431.906 631.5,430.5 Z"/></g>
<g><path style="opacity:0.29" fill="#c9c9c9" d="M 414.5,431.5 C 416.027,431.427 417.027,432.094 417.5,433.5C 415.973,433.573 414.973,432.906 414.5,431.5 Z"/></g>
<g><path style="opacity:0.071" fill="#cbcbcb" d="M 598.5,431.5 C 599.833,432.167 600.833,433.167 601.5,434.5C 599.5,434.5 598.5,433.5 598.5,431.5 Z"/></g>
<g><path style="opacity:0.063" fill="#e5e5e5" d="M 658.5,431.5 C 658.027,432.906 657.027,433.573 655.5,433.5C 655.973,432.094 656.973,431.427 658.5,431.5 Z"/></g>
<g><path style="opacity:0.235" fill="#d4d4d4" d="M 634.5,432.5 C 636.027,432.427 637.027,433.094 637.5,434.5C 635.973,434.573 634.973,433.906 634.5,432.5 Z"/></g>
<g><path style="opacity:0.037" fill="#cfcfcf" d="M 461.5,424.5 C 461.216,427.777 461.549,430.943 462.5,434C 466.486,434.499 470.486,434.666 474.5,434.5C 470.354,435.647 466.02,435.814 461.5,435C 460.18,431.399 460.18,427.899 461.5,424.5 Z"/></g>
<g><path style="opacity:0.028" fill="#e1e1e1" d="M 571.5,433.5 C 575.434,434.36 579.434,434.693 583.5,434.5C 580.024,435.643 576.358,435.81 572.5,435C 571.944,434.617 571.611,434.117 571.5,433.5 Z"/></g>
<g><path style="opacity:0.094" fill="#e1e1e1" d="M 655.5,433.5 C 654.22,434.931 652.553,435.598 650.5,435.5C 651.78,434.069 653.447,433.402 655.5,433.5 Z"/></g>
<g><path style="opacity:0.02" fill="#d8d8d8" d="M 419.5,434.5 C 423.154,434.942 426.821,435.276 430.5,435.5C 426.735,436.774 423.069,436.441 419.5,434.5 Z"/></g>
<g><path style="opacity:0.025" fill="#dadada" d="M 547.5,431.5 C 547.631,432.376 547.298,433.043 546.5,433.5C 540.188,436.971 533.855,437.304 527.5,434.5C 534.578,436.061 541.244,435.061 547.5,431.5 Z"/></g>
<g><path style="opacity:0.025" fill="#e0e0e0" d="M 637.5,434.5 C 641.81,435.08 646.143,435.414 650.5,435.5C 646.07,436.861 641.737,436.527 637.5,434.5 Z"/></g>
</svg>
